<?xml version="1.0" encoding="utf-8"?>
<!-- Generator: Adobe Illustrator 16.0.0, SVG Export Plug-In . SVG Version: 6.00 Build 0)  -->
<!DOCTYPE svg PUBLIC "-//W3C//DTD SVG 1.1//EN" "http://www.w3.org/Graphics/SVG/1.1/DTD/svg11.dtd">
<svg version="1.1" id="레이어_1" xmlns="http://www.w3.org/2000/svg" xmlns:xlink="http://www.w3.org/1999/xlink" x="0px"
	 y="0px" width="95.333px" height="130.773px" viewBox="0 0 95.333 130.773" enable-background="new 0 0 95.333 130.773"
	 xml:space="preserve">
<path d="M79.685,14.104C71.611,5.682,61.06,1.044,49.974,1.044c-13.521,0-25.998,6.812-34.962,17.66h-0.073l-0.028,0.119
	c-7.98,9.711-13.152,22.633-13.75,36.801c-0.679,16.07,4.667,31.271,14.668,41.702c8.073,8.422,18.625,13.06,29.71,13.06
	c25.646,0,47.543-24.485,48.813-54.58C95.031,39.735,89.685,24.535,79.685,14.104 M17.888,21.952h1.471
	c0.889,0,1.499,0.164,1.812,0.486c0.293,0.303,0.356,0.778,0.194,1.453l-7.782,32.108c-0.147,0.614-0.463,1.083-0.964,1.434
	c-0.508,0.357-1.243,0.537-2.183,0.537H5.433L5.43,57.983c0.005-0.724,0.011-1.448,0.042-2.177
	C6.021,42.79,10.687,30.91,17.888,21.952 M28.795,43.887c2.403,0,4.385,0.426,5.891,1.268c1.475,0.825,2.454,1.925,2.911,3.268
	c0.314,0.93,0.426,2.334,0.334,4.179c-4.348,0.317-8.465,2.123-12.244,5.368h-2.352c-0.966,0-1.65-0.17-1.981-0.494l-0.001-0.001
	c-0.27-0.263-0.201-0.843-0.095-1.281l3.009-12.307H28.795z M25.053,40.633l4.01-16.649c0.18-0.742,0.549-1.248,1.129-1.547
	c0.43-0.222,1.584-0.485,4.646-0.485c3.77,0,6.25,0.258,7.375,0.768c1.079,0.49,1.809,1.386,2.231,2.74
	c0.43,1.381,0.351,3.31-0.234,5.735c-0.847,3.517-2.477,5.991-4.845,7.352c-2.408,1.385-5.502,2.086-9.194,2.086H25.053z
	 M36.832,66.682c0.264,1.963,1.022,3.478,2.254,4.499c1.226,1.017,2.851,1.532,4.832,1.532c2.681,0,5.063-0.861,7.098-2.563
	l-0.623,2.59c-0.162,0.665-0.572,1.208-1.261,1.661c-0.699,0.462-1.642,0.696-2.802,0.696h-2.811l-0.271,1.134
	c-1.237,3.586-2.752,6.346-4.503,8.199c-2.422,2.563-5.117,3.863-8.008,3.863c-2.769,0-4.67-1.228-5.813-3.75
	c-1.163-2.565-1.063-6.728,0.297-12.371c1.34-5.562,3.252-9.679,5.683-12.237c2.077-2.186,4.319-3.44,6.672-3.736
	C36.869,61.853,36.626,65.286,36.832,66.682 M45.539,106.071c-9.898,0-19.344-4.168-26.596-11.731
	C10.875,85.924,6.108,74.069,5.49,61.218h17.031c-2.494,3.062-4.268,6.73-5.276,10.916c-1.392,5.779-0.847,10.559,1.62,14.209
	c2.481,3.671,6.187,5.532,11.015,5.532c3.232,0,6.487-0.837,9.678-2.488c3.182-1.648,5.906-3.924,8.097-6.765
	c0.891-1.157,1.696-2.443,2.396-3.829h12.385l0.89-3.695h-3.009c-1.244,0-2.068-0.227-2.448-0.676
	c-0.374-0.439-0.423-1.248-0.144-2.405l3.194-13.261c0.873-3.622,2.537-6.599,4.946-8.851c2.392-2.233,5.003-3.365,7.759-3.365
	c2.739,0,4.466,1.037,5.282,3.176c0.598,1.518,0.506,3.929-0.274,7.164L74.94,72.205c-0.234,0.975-0.693,1.682-1.402,2.161
	c-0.718,0.485-1.888,0.731-3.478,0.731h-2.124l-0.889,3.695h17.263C76.565,94.979,61.89,106.071,45.539,106.071 M90.041,55.624
	c-0.291,6.899-1.741,13.479-4.109,19.474H84.62c-1.225,0-2.062-0.232-2.425-0.671c-0.364-0.439-0.407-1.25-0.128-2.41l4.197-17.426
	c0.614-2.55,0.673-4.891,0.178-6.957c-0.507-2.108-1.506-3.676-2.968-4.661c-1.445-0.973-3.416-1.466-5.857-1.466
	c-2.807,0-5.517,0.672-8.056,1.996c-2.079,1.084-4.09,2.631-5.992,4.608l1.733-5.955H49.141l-0.799,3.314h2.361
	c1.847,0,4.486,0.475,4.935,1.03c0.549,0.681,0.658,1.731,0.323,3.12l-2.593,10.775c-0.722,2.163-1.476,3.733-2.243,4.666
	c-1.686,2.046-3.011,2.116-3.793,0.418c-0.552-1.18-0.817-3.459-0.786-6.774c0.043-4.825-0.172-7.947-0.658-9.545
	c-0.49-1.613-1.357-2.947-2.575-3.966c-0.226-0.19-2.038-1.66-4.967-2.775c2.279-0.405,4.144-0.928,5.561-1.557
	c2.246-0.997,4.132-2.357,5.605-4.04c1.477-1.689,2.49-3.642,3.009-5.803c0.882-3.656,0.211-6.662-1.996-8.933
	c-2.183-2.244-5.755-3.382-10.623-3.382H20.738c7.901-8.278,18.186-13.345,29.236-13.345c9.899,0,19.345,4.166,26.597,11.731
	C85.761,26.677,90.671,40.722,90.041,55.624"/>
<path d="M22.695,128.671l-2.159-3.258c0.726-0.093,1.368-0.355,1.911-0.782c0.604-0.475,0.938-1.142,0.991-1.98
	c0.044-0.695-0.137-1.263-0.536-1.69c-0.6-0.641-1.713-0.969-3.309-0.974l-5.874-0.02l-0.045,0.707l0.368,0.001
	c0.315,0.001,0.563,0.082,0.738,0.24c0.117,0.102,0.246,0.387,0.197,1.168l-0.392,6.218c-0.038,0.591-0.165,0.963-0.38,1.107
	c-0.226,0.153-0.48,0.23-0.755,0.23h-0.005l-0.337-0.001l-0.044,0.706l4.693,0.016l0.044-0.706l-0.352-0.002
	c-0.4-0.001-0.693-0.084-0.87-0.246c-0.118-0.107-0.248-0.406-0.197-1.214l0.166-2.636l1.891,0.006l3.124,4.81l2.749,0.01
	l0.043-0.686l-0.113-0.02C23.59,129.563,23.069,129.226,22.695,128.671 M16.796,121.64c0.018-0.286,0.153-0.483,0.414-0.604
	c0.284-0.135,0.773-0.196,1.462-0.201l0.217,0.001c1.128,0.005,1.912,0.234,2.332,0.683c0.286,0.306,0.408,0.707,0.375,1.228
	c-0.038,0.608-0.274,1.077-0.721,1.434c-0.445,0.354-1.069,0.532-1.854,0.532h-0.018l-2.401-0.008L16.796,121.64z"/>
<path d="M30.573,119.759H30.55c-1.608,0-3,0.534-4.137,1.585c-1.138,1.053-1.762,2.345-1.857,3.841
	c-0.095,1.503,0.353,2.804,1.33,3.866c0.983,1.063,2.305,1.604,3.931,1.609h0.023c1.522,0,2.873-0.505,4.016-1.501
	c1.157-1.005,1.793-2.311,1.892-3.879c0.099-1.566-0.339-2.889-1.302-3.933C33.487,120.3,32.184,119.765,30.573,119.759
	 M29.85,129.655h-0.015c-1.048-0.003-1.843-0.399-2.428-1.213c-0.585-0.816-0.842-1.856-0.764-3.091
	c0.095-1.51,0.492-2.666,1.178-3.438c0.682-0.762,1.586-1.149,2.688-1.149h0.015c1.019,0.005,1.797,0.395,2.379,1.193
	c0.585,0.798,0.836,1.93,0.745,3.366c-0.079,1.261-0.46,2.313-1.131,3.13C31.857,129.251,30.96,129.655,29.85,129.655"/>
<path d="M47.813,120.078l-4.021-0.014l-0.044,0.706l0.298,0.001c0.438,0.012,0.748,0.102,0.923,0.27
	c0.118,0.106,0.249,0.399,0.199,1.185l-0.356,5.639l-4.363-7.81l-3.6-0.012l-0.045,0.706l0.308,0.001
	c0.317,0.001,0.576,0.083,0.771,0.244c0.129,0.104,0.272,0.412,0.216,1.289l-0.379,6.006c-0.036,0.575-0.153,0.963-0.345,1.149
	c-0.192,0.185-0.491,0.265-0.882,0.275l-0.255-0.001l-0.045,0.707l4.02,0.012l0.045-0.707h-0.136
	c-0.524-0.001-0.886-0.085-1.074-0.249c-0.124-0.106-0.26-0.401-0.211-1.196l0.415-6.563l5.002,8.729l1.512,0.006l0.518-8.206
	c0.037-0.595,0.15-0.99,0.333-1.174c0.188-0.183,0.463-0.279,0.814-0.287l0.337,0.001L47.813,120.078z"/>
<path d="M57.333,128.784l-2.159-3.258c0.727-0.093,1.368-0.356,1.911-0.782c0.604-0.476,0.938-1.142,0.991-1.98
	c0.043-0.695-0.137-1.263-0.536-1.69c-0.601-0.641-1.714-0.969-3.309-0.974l-5.875-0.02l-0.045,0.706l0.368,0.002
	c0.315,0.001,0.563,0.081,0.738,0.24c0.117,0.102,0.246,0.387,0.197,1.168l-0.393,6.218c-0.037,0.59-0.165,0.963-0.38,1.107
	c-0.228,0.153-0.477,0.223-0.759,0.23l-0.339-0.002l-0.044,0.707l4.693,0.016l0.045-0.707l-0.353-0.001
	c-0.399-0.001-0.692-0.084-0.87-0.246c-0.118-0.107-0.248-0.406-0.197-1.214l0.167-2.636l1.891,0.006l3.124,4.809l2.748,0.011
	l0.044-0.687l-0.113-0.02C58.228,129.677,57.707,129.339,57.333,128.784 M51.434,121.753c0.019-0.286,0.153-0.483,0.414-0.604
	c0.284-0.135,0.776-0.194,1.462-0.201l0.218,0.001c1.127,0.005,1.912,0.234,2.332,0.683c0.285,0.305,0.408,0.706,0.375,1.228
	c-0.038,0.608-0.274,1.076-0.722,1.434c-0.444,0.354-1.068,0.531-1.854,0.531h-0.018l-2.4-0.008L51.434,121.753z"/>
<path d="M65.21,119.872h-0.023c-1.607,0-2.999,0.534-4.136,1.585c-1.138,1.053-1.763,2.345-1.857,3.84
	c-0.095,1.504,0.353,2.805,1.33,3.867c0.982,1.063,2.306,1.604,3.931,1.609h0.022c1.522,0,2.874-0.505,4.018-1.502
	c1.156-1.004,1.793-2.31,1.892-3.879c0.099-1.565-0.34-2.889-1.303-3.932C68.124,120.413,66.821,119.878,65.21,119.872
	 M64.473,129.769c-1.049-0.004-1.843-0.4-2.429-1.213c-0.584-0.817-0.843-1.856-0.764-3.092c0.096-1.509,0.492-2.667,1.178-3.438
	c0.682-0.762,1.586-1.149,2.688-1.149h0.016c1.019,0.004,1.796,0.395,2.378,1.193c0.586,0.798,0.836,1.929,0.746,3.366
	c-0.08,1.261-0.46,2.313-1.132,3.13C66.492,129.367,65.592,129.769,64.473,129.769"/>
<path d="M78.385,120.885l0.298,0.001c0.438,0.011,0.748,0.1,0.924,0.269c0.118,0.107,0.248,0.4,0.198,1.185l-0.355,5.639
	l-4.363-7.811l-3.601-0.012l-0.044,0.707l0.308,0.001c0.317,0,0.576,0.082,0.771,0.243c0.13,0.104,0.272,0.413,0.217,1.29
	l-0.38,6.006c-0.036,0.575-0.152,0.962-0.345,1.15c-0.192,0.184-0.492,0.265-0.882,0.273l-0.255-0.001l-0.045,0.706l4.021,0.015
	l0.044-0.707h-0.136c-0.524-0.002-0.886-0.086-1.073-0.249c-0.124-0.107-0.262-0.402-0.211-1.198l0.414-6.562l5.003,8.729
	l1.511,0.005l0.519-8.205c0.037-0.596,0.149-0.991,0.333-1.174c0.188-0.183,0.463-0.28,0.813-0.287l0.339,0.001l0.043-0.707
	l-4.02-0.013L78.385,120.885z"/>
</svg>
